<svg id="Layer_1" data-name="Layer 1" xmlns="http://www.w3.org/2000/svg" viewBox="0 0 462 160.71"><defs><style>.cls-1{fill:#d03027;}.cls-2{fill:#004977;}</style></defs><title>C1 Blue</title><path id="Icon" class="cls-1" d="M320.86,135.75l-.06,0c-19.06,13.49-41.65,27.67-65.94,42.55l-1,.56a.72.72,0,0,0-.17,1,.71.71,0,0,0,1,.17l.81-.42c20.6-10.75,44.27-23.52,68.08-36.62l.38-.21A29.74,29.74,0,0,1,320.86,135.75ZM446,34.46C415.94,1.31,222.58,31.13,140.34,49.09l-1.92.42a.73.73,0,1,0,.25,1.43l1.9-.37c68.13-12.13,209.81-28.95,240.29,1.28,9.3,9.22,7.08,21.1-3.7,35.12a27.81,27.81,0,0,1,11.82,17C431.1,75.92,459.38,49.22,446,34.46Z" transform="translate(-17 -19.52)"/><g id="Wordmark"><path class="cls-2" d="M333,127.05c.39,11.67,7.77,21.22,17.39,21.22,18.65,0,26.59-22.9,26-38.2-.39-11.69-8-21.22-17.57-21.22C342.83,88.84,332.48,111.64,333,127.05Zm-9.85-.62c-.69-19.9,14.9-40.26,37.55-40.26,15.15,0,25.07,10.09,25.62,25.55.72,21-13.84,40.26-37.55,40.26C333.64,152,323.72,141.91,323.17,126.43Z" transform="translate(-17 -19.52)"/><path class="cls-2" d="M108.61,121.17a21.86,21.86,0,0,1-3.15.88q-1.94.44-7.09,1.25a12.3,12.3,0,0,0-4.94,1.54,3.66,3.66,0,0,0-1.57,2.41,2.34,2.34,0,0,0,1,2.49,8.26,8.26,0,0,0,4.57,1,15.55,15.55,0,0,0,4.7-.75,11.45,11.45,0,0,0,3.84-2,6.12,6.12,0,0,0,1.65-2.41A31.81,31.81,0,0,0,108.61,121.17Zm19.69-12.25a48.63,48.63,0,0,1-.89,6.23l-3.33,18.7a3.46,3.46,0,0,0,1.87,3.85l-.1.73-19.08,0-.17-4.75a38,38,0,0,1-9.16,3.92,33.46,33.46,0,0,1-9.14,1.12c-6.16,0-9.69-.64-12.13-2.78s-3.67-3.66-3.56-6.69a10.34,10.34,0,0,1,2.31-5.55A14.05,14.05,0,0,1,80,120.13,27,27,0,0,1,87.65,118c3.37-.55,8.07-1.09,14.36-1.62a20.79,20.79,0,0,0,6.27-1.42c1.31-.51,1.83-1.07,2-2.15.35-1.92-.26-3-2.81-3.52-6.87-1.35-19.75.87-26.39,2.53l3.61-9.73a174.43,174.43,0,0,1,25.6-2.09C124,100,128.43,103.89,128.3,108.92Z" transform="translate(-17 -19.52)"/><path class="cls-2" d="M183.58,138.43l6.62-37.36h18.26l-6.62,37.36Zm7.63-46c.55-3.07,5.39-5.56,10.81-5.56s9.38,2.49,8.86,5.56S205.48,98,200,98,190.67,95.49,191.22,92.42Z" transform="translate(-17 -19.52)"/><path class="cls-2" d="M273.33,121.26c-.82.28-1.88.58-3.17.88s-3.65.68-7.1,1.25a12.07,12.07,0,0,0-4.92,1.54,3.81,3.81,0,0,0-1.59,2.4,2.36,2.36,0,0,0,1,2.49,8.39,8.39,0,0,0,4.6.94,15.49,15.49,0,0,0,4.68-.72,11.55,11.55,0,0,0,3.86-2,6.31,6.31,0,0,0,1.62-2.43A32.71,32.71,0,0,0,273.33,121.26ZM293,109a45.43,45.43,0,0,1-.9,6.22l-3.31,18.72a3.5,3.5,0,0,0,1.86,3.87l-.11.65-19.07,0-.15-4.77a37.4,37.4,0,0,1-9.17,3.91,32.82,32.82,0,0,1-9.18,1.12c-6.15,0-9.66-.62-12.1-2.77s-3.69-3.66-3.55-6.68a10,10,0,0,1,2.3-5.55,13.9,13.9,0,0,1,5.09-3.55,28.54,28.54,0,0,1,7.62-2.17c3.39-.53,8.1-1.1,14.39-1.62A21.45,21.45,0,0,0,273,115c1.33-.51,1.86-1.09,2.05-2.17.34-1.88-.27-3-2.8-3.52-6.91-1.37-19.75.87-26.39,2.52l3.59-9.73A173.89,173.89,0,0,1,275,100C288.75,100,293.12,104,293,109Z" transform="translate(-17 -19.52)"/><path class="cls-2" d="M70.12,125A66.87,66.87,0,0,1,55,126.64c-8.72,0-15.65-4.33-15.28-12.27.27-5.29,6.53-16.45,22.45-16.45a26,26,0,0,1,14.2,3.89l2.31-13a43.85,43.85,0,0,0-18.06-3c-20.86.22-40.91,9.71-43.39,29-2.53,19.6,21.41,24.53,32,24.48,6.14,0,12.51-.27,18.47-.89Z" transform="translate(-17 -19.52)"/><path class="cls-2" d="M218.53,100.86l1.31-7.61,19.1-4.16-2,11.77h9.35l-1.78,7.52-9.07,0-5.51,30s-18.39-.12-18.46,0l5.49-30H210l1.41-7.58Z" transform="translate(-17 -19.52)"/><polygon class="cls-2" points="294.55 118.89 275.95 118.91 285.31 66.79 303.43 67.3 294.55 118.89"/><path class="cls-2" d="M159.43,109.83a10.5,10.5,0,0,0-6.48,2.17,9.78,9.78,0,0,0-3.61,6.4c-.57,3.26-.24,5.6,1.05,7.05a7.24,7.24,0,0,0,5.65,2.15,11,11,0,0,0,4.65-.92,9.15,9.15,0,0,0,3.57-3.07,12.3,12.3,0,0,0,2-4.93c.52-3,.08-5.16-1.29-6.62A7,7,0,0,0,159.43,109.83Zm-33.25,41.5,8.89-50.08h16l-1.24,6.39a15.26,15.26,0,0,1,6.68-4.75,27.32,27.32,0,0,1,10.36-2.2c4.19,0,6.77.23,9.9,1.85a13.23,13.23,0,0,1,6.47,7.09,18.59,18.59,0,0,1,.8,10.17,22.08,22.08,0,0,1-9,14.61c-4.9,3.57-9.3,4.51-15.59,4.54a23.87,23.87,0,0,1-5.64-.61,12.92,12.92,0,0,1-3.64-1.46,16.93,16.93,0,0,1-3-2.71l-3,17.16Z" transform="translate(-17 -19.52)"/><path class="cls-2" d="M457.74,114.42c-.1-3-1.62-5-4.73-5-7.49,0-15.46,14.67-16.83,20.59C448.47,130,458,122.65,457.74,114.42Zm1.6,23,1.45,1c-3.65,7.44-11.1,13.43-19.84,13.43-7.15,0-13-4.76-13.32-13.69-.58-16,14.42-30.89,26.71-30.89,5.27,0,10.16,2.3,10.38,8,.45,12.73-17.43,16.63-29.21,16.89a14.39,14.39,0,0,0-.46,4.7c.19,5.28,3.39,9.72,10,9.72C450.75,146.54,456.46,141.94,459.34,137.41Z" transform="translate(-17 -19.52)"/><path class="cls-2" d="M386.07,114c1.27-.17,3.31-.39,4.19-.39,1.35,0,2.61.25,2.67,1.58,0,.79-1.4,6.46-1.7,7.78l-2.85,12.56c-1.15,5.14-2.4,10.52-3.5,14.77h7.32l4.11-19.9c12.56-13.07,17.38-17.34,20.35-17.34a2.13,2.13,0,0,1,2.31,2.3c.07,2.3-1.35,7.53-1.85,9l-4.2,14.51a30.15,30.15,0,0,0-1.59,8.3c.13,3.19,2.06,4.6,4.91,4.6,5.35,0,9.23-5.57,12.63-11l-1-1.8c-1.38,2.2-4.54,7-7,7-.79,0-1.54-.53-1.57-1.85a21.69,21.69,0,0,1,1.14-5.92l4.66-17c1.25-4.68,1.85-7.7,1.82-9.3-.12-3.17-2-4.66-4.81-4.66-4.81,0-11.21,3.52-24.74,19.1h-.19l1.7-7.6c.93-4.16,1.83-8.5,2.71-11.49A122.34,122.34,0,0,1,386,111.61Z" transform="translate(-17 -19.52)"/></g><path id="Trademark" class="cls-2" d="M465.84,100.47a6.58,6.58,0,1,1,6.6,6.53A6.47,6.47,0,0,1,465.84,100.47Zm6.6,5.45a5.42,5.42,0,1,0-5.3-5.45A5.25,5.25,0,0,0,472.44,105.92Zm-1.38-1.68h-1.16v-7.5h2.87c1.78,0,2.65.65,2.65,2.12a2,2,0,0,1-2,2.07l2.14,3.3h-1.28l-2-3.25h-1.3Zm1.34-4.21c1,0,1.83-.07,1.83-1.23,0-.93-.83-1.1-1.63-1.1h-1.53V100Z" transform="translate(-17 -19.52)"/></svg>